<svg width="33" height="33" viewBox="0 0 33 33" fill="none" xmlns="http://www.w3.org/2000/svg">
<path d="M21.1624 3C23.5112 3 25.1347 3.62953 26.0328 4.8886C26.6776 5.75129 27 6.84715 27 8.17617C27 8.71244 26.9424 9.28368 26.8273 9.8899L26.1364 13.9819C25.745 16.1969 24.9044 17.8873 23.6149 19.0531C22.3253 20.1956 20.7133 20.7668 18.7789 20.7668C16.8446 20.7668 15.4974 20.2422 14.7375 19.193L12.8722 30H7L11.6287 3.45466H16.9482L16.7755 4.39896C17.8578 3.46632 19.3201 3 21.1624 3ZM17.5699 15.7306C18.2147 15.7306 18.8135 15.5207 19.3661 15.101C19.9188 14.6813 20.2642 14.0518 20.4024 13.2124L20.8515 10.5894C20.8975 10.3562 20.9206 10.0648 20.9206 9.71502C20.9206 9.36528 20.7709 8.99223 20.4715 8.59585C20.1721 8.19948 19.654 8.0013 18.9171 8.0013C17.7196 8.0013 16.9367 8.29275 16.5682 8.87565L15.532 14.7513C15.8543 15.4041 16.5337 15.7306 17.5699 15.7306Z" fill="black"/>
</svg>
